<svg width="25" height="25" viewBox="0 0 25 25" fill="none" xmlns="http://www.w3.org/2000/svg">
<path d="M9.46876 9.37501C9.71366 8.67883 10.197 8.09179 10.8333 7.71786C11.4695 7.34393 12.2176 7.20724 12.945 7.332C13.6724 7.45677 14.3321 7.83493 14.8074 8.39952C15.2827 8.96411 15.5428 9.67868 15.5417 10.4167C15.5417 12.5 12.4167 13.5417 12.4167 13.5417M12.5 17.7083H12.5104M22.9167 12.5C22.9167 18.253 18.253 22.9167 12.5 22.9167C6.74704 22.9167 2.08334 18.253 2.08334 12.5C2.08334 6.74704 6.74704 2.08334 12.5 2.08334C18.253 2.08334 22.9167 6.74704 22.9167 12.5Z" stroke="#6D78EA" stroke-width="1.5" stroke-linecap="round" stroke-linejoin="round"/>
</svg>
