<svg width="25" height="25" viewBox="0 0 25 25" fill="none" xmlns="http://www.w3.org/2000/svg">
<path d="M17.7084 21.875V19.7917C17.7084 18.6866 17.2694 17.6268 16.488 16.8454C15.7066 16.064 14.6468 15.625 13.5417 15.625H5.20835C4.10328 15.625 3.04348 16.064 2.26208 16.8454C1.48067 17.6268 1.04169 18.6866 1.04169 19.7917V21.875M23.9584 21.875V19.7917C23.9577 18.8685 23.6504 17.9716 23.0848 17.242C22.5192 16.5124 21.7272 15.9912 20.8334 15.7604M16.6667 3.26042C17.563 3.4899 18.3573 4.01115 18.9246 4.74199C19.4919 5.47283 19.7999 6.3717 19.7999 7.29687C19.7999 8.22205 19.4919 9.12092 18.9246 9.85176C18.3573 10.5826 17.563 11.1039 16.6667 11.3333M13.5417 7.29167C13.5417 9.59285 11.6762 11.4583 9.37502 11.4583C7.07383 11.4583 5.20835 9.59285 5.20835 7.29167C5.20835 4.99048 7.07383 3.125 9.37502 3.125C11.6762 3.125 13.5417 4.99048 13.5417 7.29167Z" stroke="#6D78EA" stroke-width="1.5" stroke-linecap="round" stroke-linejoin="round"/>
</svg>
